<?xml version="1.0" encoding="iso-8859-1"?>
<!-- Uploaded to: SVG Repo, www.svgrepo.com, Generator: SVG Repo Mixer Tools -->
<!DOCTYPE svg PUBLIC "-//W3C//DTD SVG 1.1//EN" "http://www.w3.org/Graphics/SVG/1.1/DTD/svg11.dtd">
<svg fill="#000000" version="1.1" id="Capa_1" xmlns="http://www.w3.org/2000/svg" xmlns:xlink="http://www.w3.org/1999/xlink" 
	 width="800px" height="800px" viewBox="0 0 44.271 44.271"
	 xml:space="preserve">
<g>
	<path d="M22.136,0C9.93,0,0,9.93,0,22.136s9.93,22.136,22.136,22.136c12.206,0,22.135-9.93,22.135-22.136S34.342,0,22.136,0z
		 M34.996,31.181c0.359-1.118,0.654-2.288,0.877-3.505c1.485-0.402,2.807-0.884,3.913-1.438c-0.075,0.324-0.155,0.646-0.249,0.965
		C38.454,28.721,36.901,30.07,34.996,31.181z M27.203,39.537c-0.318,0.093-0.64,0.173-0.965,0.248
		c0.554-1.104,1.035-2.428,1.438-3.912c1.217-0.223,2.387-0.518,3.504-0.877C30.07,36.9,28.721,38.453,27.203,39.537z
		 M13.091,34.996c1.119,0.359,2.289,0.654,3.505,0.877c0.403,1.484,0.884,2.807,1.438,3.912c-0.325-0.075-0.647-0.155-0.965-0.248
		C15.551,38.453,14.202,36.9,13.091,34.996z M4.735,27.201c-0.093-0.317-0.173-0.639-0.249-0.965
		c1.105,0.555,2.428,1.035,3.913,1.438c0.223,1.216,0.518,2.386,0.877,3.505C7.37,30.068,5.818,28.721,4.735,27.201z M9.275,13.09
		c-0.359,1.119-0.653,2.289-0.876,3.504c-1.485,0.404-2.807,0.884-3.913,1.438c0.076-0.324,0.156-0.646,0.249-0.964
		C5.818,15.55,7.37,14.201,9.275,13.09z M17.069,4.734c0.318-0.093,0.64-0.173,0.965-0.249c-0.554,1.105-1.035,2.428-1.438,3.913
		c-1.216,0.223-2.386,0.518-3.505,0.877C14.201,7.37,15.551,5.817,17.069,4.734z M31.182,9.275
		c-1.119-0.359-2.289-0.653-3.506-0.877c-0.402-1.485-0.884-2.808-1.438-3.913c0.325,0.075,0.646,0.156,0.965,0.248
		C28.721,5.817,30.07,7.37,31.182,9.275z M39.537,17.069c0.094,0.317,0.174,0.64,0.249,0.964c-1.104-0.554-2.428-1.034-3.913-1.438
		c-0.223-1.216-0.518-2.386-0.876-3.504C36.901,14.201,38.454,15.55,39.537,17.069z M22.136,40.271
		c-0.512,0-1.016-0.035-1.518-0.078c-0.64-0.855-1.278-2.197-1.837-4.004c1.096,0.119,2.21,0.196,3.355,0.196
		s2.258-0.079,3.355-0.196c-0.56,1.807-1.196,3.148-1.837,4.004C23.152,40.236,22.648,40.271,22.136,40.271z M22.136,34.387
		c-1.337,0-2.642-0.09-3.902-0.258c-0.345-1.475-0.635-3.158-0.847-5.032c1.561,0.112,3.156,0.169,4.749,0.169
		s3.188-0.057,4.749-0.169c-0.211,1.874-0.502,3.558-0.847,5.032C24.778,34.297,23.473,34.387,22.136,34.387z M22.136,27.266
		c-1.754,0-3.395-0.072-4.94-0.189c-0.119-1.545-0.19-3.187-0.19-4.94s0.072-3.395,0.19-4.94c1.545-0.119,3.186-0.19,4.94-0.19
		s3.395,0.072,4.94,0.19c0.119,1.545,0.189,3.186,0.189,4.94s-0.071,3.396-0.189,4.94C25.531,27.193,23.89,27.266,22.136,27.266z
		 M4,22.135c0-0.512,0.035-1.016,0.077-1.518c0.855-0.64,2.198-1.278,4.004-1.837c-0.119,1.096-0.197,2.21-0.197,3.355
		c0,1.145,0.079,2.26,0.197,3.355c-1.807-0.56-3.149-1.197-4.004-1.838C4.035,23.152,4,22.648,4,22.135z M9.885,22.135
		c0-1.337,0.09-2.642,0.258-3.902c1.475-0.345,3.158-0.635,5.032-0.847c-0.112,1.561-0.169,3.156-0.169,4.749
		c0,1.594,0.057,3.188,0.169,4.749c-1.875-0.212-3.557-0.502-5.032-0.847C9.974,24.777,9.885,23.472,9.885,22.135z M22.136,4
		c0.512,0,1.016,0.035,1.518,0.077c0.641,0.855,1.277,2.198,1.837,4.005c-1.095-0.119-2.21-0.197-3.355-0.197
		s-2.26,0.079-3.355,0.197c0.559-1.807,1.197-3.149,1.837-4.005C21.12,4.035,21.624,4,22.136,4z M22.136,9.884
		c1.337,0,2.642,0.09,3.902,0.258c0.345,1.475,0.636,3.158,0.847,5.032c-1.561-0.112-3.156-0.169-4.749-0.169
		s-3.188,0.057-4.749,0.169c0.212-1.874,0.502-3.557,0.847-5.032C19.494,9.974,20.799,9.884,22.136,9.884z M29.098,17.386
		c1.873,0.212,3.557,0.502,5.031,0.847c0.168,1.26,0.258,2.565,0.258,3.902s-0.09,2.643-0.258,3.902
		c-1.475,0.345-3.158,0.635-5.031,0.847c0.111-1.562,0.168-3.155,0.168-4.749C29.266,20.542,29.209,18.947,29.098,17.386z
		 M36.19,18.78c1.807,0.559,3.149,1.197,4.004,1.837c0.042,0.502,0.077,1.006,0.077,1.518s-0.035,1.016-0.077,1.518
		c-0.854,0.641-2.198,1.278-4.004,1.838c0.118-1.096,0.196-2.211,0.196-3.355C36.387,20.991,36.309,19.876,36.19,18.78z
		 M33.752,16.092c-1.516-0.313-3.142-0.562-4.834-0.74c-0.178-1.691-0.426-3.318-0.74-4.833c1.516,0.324,2.943,0.766,4.264,1.309
		C32.985,13.15,33.428,14.578,33.752,16.092z M16.093,10.52c-0.313,1.515-0.562,3.141-0.74,4.833
		c-1.692,0.178-3.318,0.426-4.833,0.74c0.324-1.515,0.766-2.942,1.309-4.263C13.15,11.286,14.578,10.844,16.093,10.52z
		 M10.521,28.178c1.515,0.312,3.141,0.562,4.833,0.74c0.178,1.691,0.426,3.318,0.74,4.833c-1.515-0.324-2.943-0.767-4.263-1.31
		C11.286,31.121,10.844,29.693,10.521,28.178z M28.18,33.751c0.312-1.515,0.562-3.142,0.74-4.833c1.69-0.178,3.317-0.426,4.832-0.74
		c-0.324,1.516-0.766,2.943-1.31,4.264C31.122,32.984,29.694,33.427,28.18,33.751z M37.316,12.243
		c-1.021-0.713-2.145-1.361-3.367-1.919c-0.559-1.223-1.206-2.345-1.919-3.368C34.137,8.334,35.938,10.135,37.316,12.243z
		 M12.242,6.956c-0.713,1.023-1.361,2.146-1.919,3.368C9.1,10.882,7.979,11.53,6.956,12.243C8.334,10.135,10.136,8.334,12.242,6.956
		z M6.956,32.029c1.023,0.713,2.145,1.36,3.367,1.918c0.558,1.224,1.206,2.345,1.919,3.367C10.136,35.938,8.334,34.136,6.956,32.029
		z M32.029,37.316c0.713-1.023,1.361-2.146,1.919-3.369c1.224-0.558,2.345-1.205,3.368-1.918
		C35.938,34.136,34.137,35.938,32.029,37.316z"/>
</g>
</svg>